<?xml version="1.0" encoding="UTF-8" standalone="no"?>
<!-- Created with Inkscape (http://www.inkscape.org/) -->

<svg
   version="1.1"
   id="svg1"
   width="559.64001"
   height="96"
   viewBox="0 0 559.64001 96"
   xmlns="http://www.w3.org/2000/svg"
   xmlns:svg="http://www.w3.org/2000/svg">
  <defs
     id="defs1" />
  <g
     id="g1">
    <g
       id="group-R5">
      <path
         id="path2"
         d="m 317.219,344.48 c -73.781,44.059 -66.41,106.926 -35.813,153.137 0.653,1.016 0.86,2.578 0.653,4.453 -1.25,11 -13.231,38.813 -18.231,46.328 -1.328,1.954 -2.422,1.797 -2.5,0.454 -0.414,-12.563 -14.765,-44.125 -36.64,-80.375 -23.282,-38.688 -23.36,-122.512 92.265,-125.715 1.047,-0.086 1.356,1.015 0.266,1.718 z m 19.785,3.196 c -44.164,94.301 44.09,155.176 58.465,168.379 2.062,1.859 1.535,3.578 1.562,5.664 0,29.648 -16.953,77.695 -22.5,84.531 -0.804,1.094 -1.531,0.625 -1.797,-0.43 -7.578,-29.297 -47.757,-72.89 -55.781,-82.422 -68.176,-80.937 -52.551,-130.273 18.539,-176.808 0.914,-0.543 2.008,0.082 1.512,1.086 z m 14.324,4.07 c 20.891,99.973 102.238,102.418 109.481,121.379 11.379,29.57 -9.371,82.07 -14.692,88.281 -0.492,0.664 -1.242,0.258 -1.453,-0.312 -11.148,-24.258 -29.008,-47.305 -42.086,-57.867 -18.383,-14.907 -89.062,-67.289 -52.914,-151.555 0.465,-1.047 1.43,-0.863 1.664,0.074 z m 14.531,-8.75 c 131.672,-4.715 141.043,115.324 141.618,160.246 0,2.641 -1.254,2.852 -1.985,1.078 -3.797,-9.375 -20.961,-42.875 -68.488,-63.226 -42.395,-18.242 -67.941,-59.531 -72.34,-96.692 -0.262,-0.855 0.52,-1.328 1.195,-1.406 z m 29.922,-44.922 v 30.235 H 291.875 V 298.074 H 395.781 Z M 335.027,84.1875 c 0.887,-5.0156 11.77,-7.5156 14.215,0 l 25.16,199.4335 H 313.258 L 335.027,84.1875 Z M 719.977,0 H 0 V 720 H 719.977 V 0 0"
         style="fill:#ffffff;fill-opacity:1;fill-rule:nonzero;stroke:none"
         transform="matrix(0.13333333,0,0,-0.13333333,0,96)" />
      <path
         id="path3"
         d="m 901.852,441.289 h 32.968 l 76.12,-100.09 v 100.09 h 35.31 V 278.777 h -30.44 L 937.109,382.07 V 278.777 h -35.257 v 162.512 0"
         style="fill:#ffffff;fill-opacity:1;fill-rule:nonzero;stroke:none"
         transform="matrix(0.13333333,0,0,-0.13333333,0,96)" />
      <path
         id="path4"
         d="m 1108.44,441.289 h 122.63 v -31.812 h -87.08 v -32.969 h 76.61 v -31.793 h -76.61 v -34.121 h 88.2 v -31.817 h -123.75 v 162.512 0"
         style="fill:#ffffff;fill-opacity:1;fill-rule:nonzero;stroke:none"
         transform="matrix(0.13333333,0,0,-0.13333333,0,96)" />
      <path
         id="path5"
         d="M 1274.69,441.289 H 1313 l 33.64,-110.07 36.46,110.539 h 30.65 l 36.43,-110.539 33.7,110.07 h 37.37 l -55.49,-163.684 h -31.1 l -36.69,106.34 -36.69,-106.34 h -31.1 l -55.49,163.684 v 0"
         style="fill:#ffffff;fill-opacity:1;fill-rule:nonzero;stroke:none"
         transform="matrix(0.13333333,0,0,-0.13333333,0,96)" />
      <path
         id="path6"
         d="m 1709.56,342.84 -62.5,98.449 h 41.82 l 38.78,-65.25 39.45,65.25 h 40.63 l -62.43,-97.726 v -64.786 h -35.75 v 64.063 0"
         style="fill:#ffffff;fill-opacity:1;fill-rule:nonzero;stroke:none"
         transform="matrix(0.13333333,0,0,-0.13333333,0,96)" />
      <path
         id="path7"
         d="m 1828.63,359.531 v 0.489 c 0,46.191 36.45,84.003 86.61,84.003 50.15,0 86.17,-37.304 86.17,-83.527 v -0.476 c 0,-46.165 -36.49,-84.055 -86.64,-84.055 -50.16,0 -86.14,37.344 -86.14,83.566 z m 135.36,0 v 0.489 c 0,27.832 -20.42,51.019 -49.22,51.019 -28.82,0 -48.75,-22.656 -48.75,-50.543 v -0.476 c 0,-27.832 20.4,-51.086 49.22,-51.086 28.75,0 48.75,22.785 48.75,50.597 v 0"
         style="fill:#ffffff;fill-opacity:1;fill-rule:nonzero;stroke:none"
         transform="matrix(0.13333333,0,0,-0.13333333,0,96)" />
      <path
         id="path8"
         d="m 2056.38,441.289 h 74.24 c 20.78,0 36.76,-5.82 47.42,-16.5 9.14,-9.062 13.98,-21.82 13.98,-37.133 v -0.468 c 0,-26.25 -14.22,-42.708 -34.84,-50.364 l 39.61,-58.047 h -41.64 l -34.92,52.032 h -0.47 -27.6 v -52.032 h -35.78 v 162.512 z m 71.97,-78.969 c 17.42,0 27.42,9.344 27.42,23.032 v 0.429 c 0,15.313 -10.7,23.227 -28.12,23.227 h -35.49 V 362.32 h 36.19 v 0"
         style="fill:#ffffff;fill-opacity:1;fill-rule:nonzero;stroke:none"
         transform="matrix(0.13333333,0,0,-0.13333333,0,96)" />
      <path
         id="path9"
         d="m 2247.49,441.289 h 35.78 v -71.094 l 65.94,71.094 h 43.13 l -66.18,-68.945 69.14,-93.567 h -42.89 l -50.39,69.192 -18.75,-19.531 v -49.661 h -35.78 v 162.512 0"
         style="fill:#ffffff;fill-opacity:1;fill-rule:nonzero;stroke:none"
         transform="matrix(0.13333333,0,0,-0.13333333,0,96)" />
      <path
         id="path10"
         d="m 2530.46,348.387 v 92.902 h 35.78 v -91.914 c 0,-26.465 13.2,-40.187 35,-40.187 21.8,0 35.05,13.261 35.05,38.964 v 93.137 h 35.81 v -91.73 c 0,-49.246 -27.66,-73.309 -71.25,-73.309 -43.67,0 -70.39,24.375 -70.39,72.137 v 0"
         style="fill:#ffffff;fill-opacity:1;fill-rule:nonzero;stroke:none"
         transform="matrix(0.13333333,0,0,-0.13333333,0,96)" />
      <path
         id="path11"
         d="m 2731.76,441.289 h 32.97 l 76.09,-100.09 v 100.09 h 35.34 V 278.777 h -30.39 L 2767.02,382.07 V 278.777 h -35.26 v 162.512 0"
         style="fill:#ffffff;fill-opacity:1;fill-rule:nonzero;stroke:none"
         transform="matrix(0.13333333,0,0,-0.13333333,0,96)" />
      <path
         id="path12"
         d="m 2939.99,441.289 h 35.78 V 278.777 h -35.78 v 162.512 0"
         style="fill:#ffffff;fill-opacity:1;fill-rule:nonzero;stroke:none"
         transform="matrix(0.13333333,0,0,-0.13333333,0,96)" />
      <path
         id="path13"
         d="m 3025.67,441.289 h 39.53 l 42.45,-114.414 42.42,114.414 h 38.59 l -65.7,-163.684 h -31.56 l -65.73,163.684 v 0"
         style="fill:#ffffff;fill-opacity:1;fill-rule:nonzero;stroke:none"
         transform="matrix(0.13333333,0,0,-0.13333333,0,96)" />
      <path
         id="path14"
         d="m 3236.94,441.289 h 122.63 v -31.812 h -87.08 v -32.969 h 76.61 v -31.793 h -76.61 v -34.121 h 88.18 v -31.817 h -123.73 v 162.512 0"
         style="fill:#ffffff;fill-opacity:1;fill-rule:nonzero;stroke:none"
         transform="matrix(0.13333333,0,0,-0.13333333,0,96)" />
      <path
         id="path15"
         d="m 3415.69,441.289 h 74.3 c 20.68,0 36.72,-5.82 47.35,-16.5 9.06,-9.062 13.9,-21.82 13.9,-37.133 v -0.468 c 0,-26.25 -14.06,-42.708 -34.69,-50.364 l 39.58,-58.047 h -41.76 l -34.8,52.032 h -0.47 -27.7 v -52.032 h -35.71 v 162.512 z m 71.96,-78.969 c 17.39,0 27.34,9.344 27.34,23.032 v 0.429 c 0,15.313 -10.62,23.227 -27.97,23.227 H 3451.4 V 362.32 h 36.25 v 0"
         style="fill:#ffffff;fill-opacity:1;fill-rule:nonzero;stroke:none"
         transform="matrix(0.13333333,0,0,-0.13333333,0,96)" />
      <path
         id="path16"
         d="m 3595.62,302.5 21.09,25.262 c 14.69,-12.032 30,-19.766 48.59,-19.766 14.54,0 23.44,5.859 23.44,15.313 v 0.468 c 0,9.063 -5.62,13.723 -32.73,20.703 -32.84,8.333 -53.94,17.422 -53.94,49.7 v 0.39 c 0,29.532 23.7,49.024 56.98,49.024 23.6,0 43.83,-7.461 60.32,-20.68 l -18.6,-26.875 c -14.37,9.938 -28.54,15.992 -42.26,15.992 -13.67,0 -20.86,-6.304 -20.86,-14.179 v -0.469 c 0,-10.664 6.95,-14.156 35.05,-21.344 32.92,-8.594 51.51,-20.445 51.51,-48.742 v -0.422 c 0,-32.316 -24.61,-50.469 -59.69,-50.469 -24.61,0 -49.37,8.594 -68.9,26.094 v 0"
         style="fill:#ffffff;fill-opacity:1;fill-rule:nonzero;stroke:none"
         transform="matrix(0.13333333,0,0,-0.13333333,0,96)" />
      <path
         id="path17"
         d="m 3780.15,441.289 h 35.78 V 278.777 h -35.78 v 162.512 0"
         style="fill:#ffffff;fill-opacity:1;fill-rule:nonzero;stroke:none"
         transform="matrix(0.13333333,0,0,-0.13333333,0,96)" />
      <path
         id="path18"
         d="m 3917.65,408.32 h -49.48 v 32.969 h 134.68 V 408.32 h -49.5 V 278.777 h -35.7 v 129.543 0"
         style="fill:#ffffff;fill-opacity:1;fill-rule:nonzero;stroke:none"
         transform="matrix(0.13333333,0,0,-0.13333333,0,96)" />
      <path
         id="path19"
         d="m 4099.21,342.84 -62.45,98.449 h 41.75 l 38.75,-65.25 39.45,65.25 h 40.63 l -62.46,-97.726 v -64.786 h -35.67 v 64.063 0"
         style="fill:#ffffff;fill-opacity:1;fill-rule:nonzero;stroke:none"
         transform="matrix(0.13333333,0,0,-0.13333333,0,96)" />
    </g>
  </g>
</svg>
